<?xml version="1.0" encoding="iso-8859-1"?>
<!-- Generator: Adobe Illustrator 19.0.0, SVG Export Plug-In . SVG Version: 6.00 Build 0)  -->
<svg version="1.1" id="Layer_1" xmlns="http://www.w3.org/2000/svg" xmlns:xlink="http://www.w3.org/1999/xlink" x="0px" y="0px"
	 viewBox="0 0 512 512" style="enable-background:new 0 0 512 512;" xml:space="preserve">
<g>
	<path style="fill:#DEDEE1;" d="M404.212,258.369c-11.308-2.428-32.538-14.548-56.717-30.27l-18.291,18.291
		c-6.894,6.894-18.07,6.894-24.964,0c-6.894-6.903-6.894-18.07,0-24.973l13.427-13.418c-9.066-6.303-18.15-12.756-26.977-19.129
		l-14.451,14.451c-6.894,6.894-18.07,6.894-24.964,0s-6.894-18.07,0-24.964l10.593-10.602
		c-15.828-11.767-29.149-21.919-37.367-28.239c-5.129-3.937-12.359-3.452-16.931,1.121l-18.132,18.132
		c-5.402,5.402-5.402,14.159,0,19.571l4.935,4.926c6.082,6.091,4.326,16.587-3.584,19.986
		c-87.164,37.429-127.912-34.701-127.912-34.701C33.683,163.305,8.983,331.011,8.983,331.011h503.014
		C511.996,265.14,442.391,266.614,404.212,258.369"/>
	<path style="fill:#ACAAAF;" d="M512,331.007H8.986L0,357.181c0,0,6.735,17.964,71.857,17.964h387.178
		C459.034,375.145,512.141,371.835,512,331.007"/>
	<g>
		<path style="fill:#DEDEE1;" d="M251.272,203.318L251.272,203.318c-6.894-6.886-6.894-18.07,0-24.964l18.732-18.723
			c6.886-6.894,18.07-6.894,24.964,0c6.894,6.894,6.894,18.07,0,24.964l-18.723,18.723
			C269.342,210.212,258.166,210.212,251.272,203.318"/>
		<path style="fill:#DEDEE1;" d="M304.237,246.387L304.237,246.387c-6.894-6.894-6.894-18.07,0-24.964l18.732-18.723
			c6.886-6.894,18.07-6.894,24.964,0c6.894,6.886,6.894,18.07,0,24.964l-18.723,18.723
			C322.308,253.281,311.132,253.281,304.237,246.387"/>
	</g>
	<g>
		<path style="fill:#C03A2B;" d="M347.5,228.093l-17.629,17.629c-6.215,6.215-16.225,7.733-23.367,2.595
			c-9.092-6.55-9.852-19.315-2.269-26.898l13.444-13.436c-9.066-6.294-18.158-12.756-26.986-19.121l-13.789,13.789
			c-6.215,6.215-16.225,7.733-23.367,2.595c-9.092-6.55-9.852-19.306-2.269-26.898l10.602-10.602
			c-15.828-11.758-29.149-21.901-37.376-28.231c-5.129-3.937-12.359-3.46-16.931,1.121l-18.132,18.123
			c-5.402,5.411-5.402,14.168,0,19.571l5.138,5.138c6.135,6.135,4.008,16.446-3.964,19.853c-2.136,0.909-4.211,1.713-6.294,2.498
			l1.068,1.598c13.7,9.137,15.616,28.522,3.972,40.166l-83.421,83.421h114.759l45.789-45.789c9.181-9.181,23.72-10.222,34.11-2.428
			l0.282,0.221c9.86,7.398,23.561,6.877,32.839-1.245l41.719-36.502C366.956,240.452,357.475,234.573,347.5,228.093"/>
		<path style="fill:#C03A2B;" d="M22.198,259.972c-8.183,36.952-13.215,71.036-13.215,71.036h41.384
			c1.668-5.597,2.595-11.52,2.595-17.655C52.962,290.551,40.577,270.68,22.198,259.972"/>
	</g>
</g>
<g>
</g>
<g>
</g>
<g>
</g>
<g>
</g>
<g>
</g>
<g>
</g>
<g>
</g>
<g>
</g>
<g>
</g>
<g>
</g>
<g>
</g>
<g>
</g>
<g>
</g>
<g>
</g>
<g>
</g>
</svg>
